<svg width="123" height="40" viewBox="0 0 123 40" fill="none" xmlns="http://www.w3.org/2000/svg">
<path d="M122.5 34C122.5 37.0376 120.038 39.5 117 39.5H8.80729C4.9298 39.5 2.26971 35.5953 3.68896 31.9869L14.7017 3.98689C15.5292 1.88319 17.5595 0.5 19.8201 0.5H117C120.038 0.5 122.5 2.96243 122.5 6V34Z" stroke="#30C884"/>
<path d="M25.72 27.224C25.6133 27.224 25.528 27.1867 25.464 27.112C25.4 27.048 25.368 26.9627 25.368 26.856V23.976C25.368 23.8693 25.4 23.784 25.464 23.72C25.528 23.6453 25.6133 23.608 25.72 23.608H26.072C26.584 23.608 26.968 23.1227 27.224 22.152C27.4907 21.1813 27.624 19.672 27.624 17.624V14.168C27.624 14.0613 27.656 13.976 27.72 13.912C27.7947 13.8373 27.8853 13.8 27.992 13.8H34.184C34.3013 13.8 34.392 13.8373 34.456 13.912C34.52 13.976 34.552 14.0667 34.552 14.184V23.608H35.336C35.4533 23.608 35.544 23.6453 35.608 23.72C35.6827 23.784 35.72 23.8693 35.72 23.976V26.856C35.72 26.9733 35.6827 27.064 35.608 27.128C35.544 27.192 35.4533 27.224 35.336 27.224H34.584C34.4773 27.224 34.3867 27.192 34.312 27.128C34.248 27.064 34.216 26.9733 34.216 26.856V25H26.872V26.856C26.872 26.9627 26.8347 27.048 26.76 27.112C26.696 27.1867 26.6053 27.224 26.488 27.224H25.72ZM33.048 23.608V15.192H29.112V17.816C29.112 19.32 29.0213 20.5467 28.84 21.496C28.6693 22.4347 28.408 23.1387 28.056 23.608H33.048ZM40.8416 25.16C39.6683 25.16 38.7616 24.8293 38.1216 24.168C37.4923 23.5067 37.1563 22.6267 37.1136 21.528L37.0976 20.84L37.1136 20.152C37.1563 19.0533 37.4976 18.1733 38.1376 17.512C38.7883 16.8507 39.6896 16.52 40.8416 16.52C41.9936 16.52 42.8896 16.8507 43.5296 17.512C44.1803 18.1733 44.527 19.0533 44.5696 20.152C44.591 20.3867 44.6016 20.616 44.6016 20.84C44.6016 21.064 44.591 21.2933 44.5696 21.528C44.527 22.6267 44.1856 23.5067 43.5456 24.168C42.9163 24.8293 42.015 25.16 40.8416 25.16ZM40.8416 23.96C41.5243 23.96 42.063 23.7467 42.4576 23.32C42.863 22.8827 43.0816 22.2587 43.1136 21.448C43.1243 21.3413 43.1296 21.1387 43.1296 20.84C43.1296 20.5413 43.1243 20.3387 43.1136 20.232C43.0816 19.4213 42.863 18.8027 42.4576 18.376C42.063 17.9387 41.5243 17.72 40.8416 17.72C40.159 17.72 39.615 17.9387 39.2096 18.376C38.815 18.8027 38.6016 19.4213 38.5696 20.232L38.5536 20.84L38.5696 21.448C38.6016 22.2587 38.815 22.8827 39.2096 23.32C39.615 23.7467 40.159 23.96 40.8416 23.96ZM53.8539 20.648C53.8645 20.7547 53.8699 20.9253 53.8699 21.16C53.8699 21.3627 53.8645 21.5067 53.8539 21.592C53.8112 22.6693 53.4699 23.5333 52.8299 24.184C52.1899 24.8347 51.2885 25.16 50.1259 25.16C48.9312 25.16 48.0192 24.824 47.3899 24.152C46.7605 23.4693 46.4192 22.5307 46.3659 21.336V19.416C46.3765 17.8907 46.5792 16.7493 46.9739 15.992C47.3792 15.224 47.9445 14.6747 48.6699 14.344C49.4059 14.0027 50.5952 13.6187 52.2379 13.192L52.6699 13.08L52.7499 13.064C52.8245 13.064 52.8939 13.0907 52.9579 13.144C53.0219 13.1973 53.0645 13.2667 53.0859 13.352L53.2139 13.96L53.2299 14.056C53.2299 14.216 53.1445 14.3227 52.9739 14.376C52.8459 14.408 52.5632 14.4773 52.1259 14.584C50.9099 14.872 50.0299 15.1227 49.4859 15.336C48.9525 15.5493 48.5419 15.8853 48.2539 16.344C47.9659 16.8027 47.8059 17.4853 47.7739 18.392C48.0299 18.008 48.3925 17.6933 48.8619 17.448C49.3312 17.2027 49.8325 17.08 50.3659 17.08C51.4432 17.08 52.2805 17.4107 52.8779 18.072C53.4859 18.7227 53.8112 19.5813 53.8539 20.648ZM52.3819 21.512C52.3925 21.4373 52.3979 21.32 52.3979 21.16C52.3979 20.968 52.3925 20.824 52.3819 20.728C52.3605 19.928 52.1579 19.3147 51.7739 18.888C51.3899 18.4507 50.8885 18.232 50.2699 18.232C49.5659 18.232 48.9952 18.4507 48.5579 18.888C48.1205 19.3147 47.8859 19.928 47.8539 20.728L47.8379 21.16L47.8539 21.512C47.8859 22.312 48.0992 22.9307 48.4939 23.368C48.8992 23.7947 49.4432 24.008 50.1259 24.008C50.7979 24.008 51.3365 23.7947 51.7419 23.368C52.1472 22.9307 52.3605 22.312 52.3819 21.512ZM58.2071 25.16C57.6845 25.16 57.1991 25.0533 56.7511 24.84C56.3138 24.6267 55.9618 24.3387 55.6951 23.976C55.4391 23.6027 55.3111 23.192 55.3111 22.744C55.3111 22.04 55.5991 21.464 56.1751 21.016C56.7511 20.568 57.5351 20.2693 58.5271 20.12L60.9271 19.784V19.32C60.9271 18.2213 60.2925 17.672 59.0231 17.672C58.5325 17.672 58.1378 17.7733 57.8391 17.976C57.5405 18.168 57.3218 18.3973 57.1831 18.664C57.1405 18.7707 57.0925 18.8453 57.0391 18.888C56.9965 18.92 56.9325 18.936 56.8471 18.936H56.2231C56.1271 18.936 56.0418 18.904 55.9671 18.84C55.9031 18.7653 55.8711 18.68 55.8711 18.584C55.8711 18.3387 55.9831 18.056 56.2071 17.736C56.4418 17.4053 56.7991 17.1227 57.2791 16.888C57.7591 16.6427 58.3458 16.52 59.0391 16.52C60.2338 16.52 61.0871 16.7973 61.5991 17.352C62.1218 17.9067 62.3831 18.6 62.3831 19.432V24.632C62.3831 24.7387 62.3458 24.8293 62.2711 24.904C62.2071 24.968 62.1218 25 62.0151 25H61.3111C61.2045 25 61.1191 24.968 61.0551 24.904C60.9911 24.8293 60.9591 24.7387 60.9591 24.632V23.928C60.7245 24.28 60.3831 24.5733 59.9351 24.808C59.4871 25.0427 58.9111 25.16 58.2071 25.16ZM58.5271 23.992C59.2311 23.992 59.8071 23.7627 60.2551 23.304C60.7031 22.8453 60.9271 22.1787 60.9271 21.304V20.856L59.0551 21.128C58.2871 21.2347 57.7058 21.416 57.3111 21.672C56.9165 21.928 56.7191 22.248 56.7191 22.632C56.7191 23.0693 56.8951 23.4053 57.2471 23.64C57.6098 23.8747 58.0365 23.992 58.5271 23.992ZM65.068 25C64.9613 25 64.8707 24.968 64.796 24.904C64.732 24.8293 64.7 24.7387 64.7 24.632V17.048C64.7 16.9413 64.732 16.856 64.796 16.792C64.8707 16.7173 64.9613 16.68 65.068 16.68H68.38C69.34 16.68 70.076 16.8827 70.588 17.288C71.1107 17.6827 71.372 18.2213 71.372 18.904C71.372 19.3627 71.2867 19.72 71.116 19.976C70.9453 20.232 70.6787 20.4507 70.316 20.632C70.7 20.792 70.9987 21.0587 71.212 21.432C71.436 21.8053 71.548 22.2107 71.548 22.648C71.548 23.4053 71.2813 23.9867 70.748 24.392C70.2147 24.7973 69.4627 25 68.492 25H65.068ZM68.268 20.232C68.7907 20.232 69.2067 20.12 69.516 19.896C69.8253 19.6613 69.98 19.336 69.98 18.92C69.98 18.184 69.4093 17.816 68.268 17.816H66.108V20.232H68.268ZM68.364 23.864C68.8973 23.864 69.3187 23.7627 69.628 23.56C69.948 23.3467 70.108 23.0373 70.108 22.632C70.108 22.2053 69.964 21.8907 69.676 21.688C69.388 21.4853 68.9507 21.384 68.364 21.384H66.108V23.864H68.364ZM73.2215 25C73.1148 25 73.0242 24.9627 72.9495 24.888C72.8748 24.8133 72.8375 24.7227 72.8375 24.616V24.056C72.8375 23.96 72.8695 23.88 72.9335 23.816C72.9975 23.752 73.0775 23.7147 73.1735 23.704C73.6855 23.6933 74.0695 23.3307 74.3255 22.616C74.5815 21.8907 74.7095 20.7173 74.7095 19.096V17.048C74.7095 16.9413 74.7415 16.856 74.8055 16.792C74.8802 16.7173 74.9708 16.68 75.0775 16.68H80.1015C80.2188 16.68 80.3095 16.712 80.3735 16.776C80.4375 16.84 80.4695 16.9307 80.4695 17.048V24.632C80.4695 24.7387 80.4322 24.8293 80.3575 24.904C80.2935 24.968 80.2082 25 80.1015 25H79.3975C79.2908 25 79.2002 24.968 79.1255 24.904C79.0615 24.8293 79.0295 24.7387 79.0295 24.632V17.912H76.1175V19.256C76.1175 21.2827 75.8828 22.7493 75.4135 23.656C74.9442 24.552 74.2135 25 73.2215 25ZM86.1835 25.16C85.0955 25.16 84.2262 24.824 83.5755 24.152C82.9248 23.4693 82.5675 22.5413 82.5035 21.368L82.4875 20.824L82.5035 20.296C82.5675 19.144 82.9248 18.2267 83.5755 17.544C84.2262 16.8613 85.0955 16.52 86.1835 16.52C87.3568 16.52 88.2635 16.8933 88.9035 17.64C89.5542 18.3867 89.8795 19.4 89.8795 20.68V20.968C89.8795 21.0747 89.8422 21.1653 89.7675 21.24C89.7035 21.304 89.6182 21.336 89.5115 21.336H83.9595V21.48C83.9915 22.1733 84.2048 22.7653 84.5995 23.256C84.9942 23.7467 85.5168 23.992 86.1675 23.992C86.6688 23.992 87.0742 23.896 87.3835 23.704C87.7035 23.5013 87.9435 23.2933 88.1035 23.08C88.1995 22.952 88.2742 22.8773 88.3275 22.856C88.3808 22.824 88.4715 22.808 88.5995 22.808H89.3035C89.3995 22.808 89.4795 22.8347 89.5435 22.888C89.6182 22.9413 89.6555 23.0107 89.6555 23.096C89.6555 23.3307 89.5115 23.6133 89.2235 23.944C88.9355 24.2747 88.5248 24.5627 87.9915 24.808C87.4688 25.0427 86.8662 25.16 86.1835 25.16ZM88.4235 20.248V20.2C88.4235 19.4533 88.2208 18.8453 87.8155 18.376C87.4102 17.9067 86.8662 17.672 86.1835 17.672C85.4902 17.672 84.9462 17.9067 84.5515 18.376C84.1568 18.8453 83.9595 19.4533 83.9595 20.2V20.248H88.4235ZM92.193 25C92.0863 25 91.9957 24.968 91.921 24.904C91.857 24.8293 91.825 24.7387 91.825 24.632V17.048C91.825 16.9413 91.857 16.856 91.921 16.792C91.9957 16.7173 92.0863 16.68 92.193 16.68H92.897C93.0037 16.68 93.089 16.7173 93.153 16.792C93.2277 16.856 93.265 16.9413 93.265 17.048V20.136H97.681V17.048C97.681 16.9413 97.713 16.856 97.777 16.792C97.8517 16.7173 97.9423 16.68 98.049 16.68H98.753C98.8703 16.68 98.961 16.712 99.025 16.776C99.089 16.84 99.121 16.9307 99.121 17.048V24.632C99.121 24.7387 99.0837 24.8293 99.009 24.904C98.945 24.968 98.8597 25 98.753 25H98.049C97.9423 25 97.8517 24.968 97.777 24.904C97.713 24.8293 97.681 24.7387 97.681 24.632V21.368H93.265V24.632C93.265 24.7387 93.2277 24.8293 93.153 24.904C93.089 24.968 93.0037 25 92.897 25H92.193ZM104.92 25.16C103.746 25.16 102.84 24.8293 102.2 24.168C101.57 23.5067 101.234 22.6267 101.192 21.528L101.176 20.84L101.192 20.152C101.234 19.0533 101.576 18.1733 102.216 17.512C102.866 16.8507 103.768 16.52 104.92 16.52C106.072 16.52 106.968 16.8507 107.608 17.512C108.258 18.1733 108.605 19.0533 108.648 20.152C108.669 20.3867 108.68 20.616 108.68 20.84C108.68 21.064 108.669 21.2933 108.648 21.528C108.605 22.6267 108.264 23.5067 107.624 24.168C106.994 24.8293 106.093 25.16 104.92 25.16ZM104.92 23.96C105.602 23.96 106.141 23.7467 106.536 23.32C106.941 22.8827 107.16 22.2587 107.192 21.448C107.202 21.3413 107.208 21.1387 107.208 20.84C107.208 20.5413 107.202 20.3387 107.192 20.232C107.16 19.4213 106.941 18.8027 106.536 18.376C106.141 17.9387 105.602 17.72 104.92 17.72C104.237 17.72 103.693 17.9387 103.288 18.376C102.893 18.8027 102.68 19.4213 102.648 20.232L102.632 20.84L102.648 21.448C102.68 22.2587 102.893 22.8827 103.288 23.32C103.693 23.7467 104.237 23.96 104.92 23.96Z" fill="#30C884"/>
</svg>
