<svg width="123" height="41" viewBox="0 0 123 41" fill="none" xmlns="http://www.w3.org/2000/svg">
<path d="M123 34.9063C123 38.22 120.314 40.9062 117 40.9062H8.80729C4.57729 40.9062 1.67539 36.6466 3.22365 32.7101L14.2364 4.71013C15.1391 2.41519 17.354 0.90625 19.8201 0.90625H117C120.314 0.90625 123 3.59254 123 6.90625V34.9063Z" fill="#78D4AB"/>
<g clip-path="url(#clip0)">
<path d="M62.1602 23.1896H72.2169C72.466 23.1896 72.6844 23.0249 72.7518 22.7857L74.9785 14.9926C75.0264 14.8246 74.9936 14.6441 74.8882 14.5046C74.7827 14.3654 74.6186 14.2832 74.4435 14.2832H60.8751L60.4772 12.4927C60.4207 12.2377 60.1945 12.0566 59.9336 12.0566H56.5566C56.249 12.0566 56 12.3057 56 12.6133C56 12.921 56.249 13.1699 56.5566 13.1699H59.4868L61.497 22.2153C60.9055 22.4725 60.4902 23.0612 60.4902 23.7462C60.4902 24.667 61.2394 25.4162 62.1602 25.4162H72.2169C72.5247 25.4162 72.7736 25.1673 72.7736 24.8595C72.7736 24.5519 72.5247 24.3029 72.2169 24.3029H62.1602C61.8536 24.3029 61.6035 24.0534 61.6035 23.7462C61.6035 23.4391 61.8536 23.1896 62.1602 23.1896Z" fill="white"/>
<path d="M61.6035 27.0862C61.6035 28.0071 62.3527 28.7561 63.2736 28.7561C64.1944 28.7561 64.9435 28.0071 64.9435 27.0862C64.9435 26.1654 64.1944 25.4163 63.2736 25.4163C62.3527 25.4163 61.6035 26.1654 61.6035 27.0862Z" fill="white"/>
<path d="M69.4338 27.0862C69.4338 28.0071 70.183 28.7561 71.1038 28.7561C72.0247 28.7561 72.7737 28.0071 72.7737 27.0862C72.7737 26.1654 72.0247 25.4163 71.1038 25.4163C70.183 25.4163 69.4338 26.1654 69.4338 27.0862Z" fill="white"/>
</g>
<defs>
<clipPath id="clip0">
<rect width="19" height="19" fill="white" transform="translate(56 10.9062)"/>
</clipPath>
</defs>
</svg>
