<svg width="11" height="21" viewBox="0 0 11 21" fill="none" xmlns="http://www.w3.org/2000/svg">
<path d="M6.86401 2.5311H6.40951C6.40951 2.48975 6.40979 2.4492 6.41006 2.40946C6.41328 1.94267 6.41574 1.58722 5.955 1.33622V1.21322C5.955 1.09671 5.90712 0.984976 5.82188 0.902592C5.73665 0.820208 5.62104 0.773926 5.5005 0.773926C5.37996 0.773926 5.26435 0.820208 5.17912 0.902592C5.09388 0.984976 5.046 1.09671 5.046 1.21322V1.33622C4.58353 1.58992 4.58701 1.98389 4.5908 2.41323C4.59114 2.45225 4.59149 2.49157 4.59149 2.5311H4.13699L3.79611 3.84899H7.20489L6.86401 2.5311Z" fill="#30C884"/>
<path d="M6.86465 14.1845C6.86465 14.9124 6.25419 15.5024 5.50114 15.5024C4.74809 15.5024 4.13763 14.9124 4.13763 14.1845C4.13763 13.4567 4.74809 12.8666 5.50114 12.8666C6.25419 12.8666 6.86465 13.4567 6.86465 14.1845Z" fill="#30C884"/>
<path fill-rule="evenodd" clip-rule="evenodd" d="M9.40522 13.7935C8.36895 12.625 8.22805 11.5048 8.22805 10.1694C8.61732 10.0722 8.9623 9.8531 9.20901 9.54628C9.45572 9.23947 9.59026 8.86227 9.59156 8.47369V7.5951C9.59026 7.20652 9.45572 6.82931 9.20901 6.5225C8.9623 6.21568 8.61732 5.99656 8.22805 5.89942V5.39863C8.22805 5.16561 8.13228 4.94214 7.96181 4.77737C7.79133 4.6126 7.56012 4.52004 7.31904 4.52004H3.683C3.44192 4.52004 3.21071 4.6126 3.04024 4.77737C2.86976 4.94214 2.77399 5.16561 2.77399 5.39863V5.89942C2.38472 5.99656 2.03974 6.21568 1.79303 6.5225C1.54632 6.82931 1.41179 7.20652 1.41048 7.5951V8.47369C1.41179 8.86227 1.54632 9.23947 1.79303 9.54628C2.03974 9.8531 2.38472 10.0722 2.77399 10.1694C2.77399 11.3818 2.68764 12.5591 1.67864 13.6837C0.917454 14.5391 0.499677 15.6305 0.501471 16.7588V17.6989C0.501471 18.1649 0.693011 18.6118 1.03396 18.9414C1.3749 19.2709 1.83732 19.456 2.31949 19.456H2.77399V20.7739H8.22805V19.456H8.68255C9.16472 19.456 9.62714 19.2709 9.96809 18.9414C10.309 18.6118 10.5006 18.1649 10.5006 17.6989C10.5006 17.6312 10.5008 17.5631 10.501 17.4947C10.5048 16.3192 10.509 15.0347 9.40522 13.7935ZM2.77399 9.23366C2.29329 8.97138 2.30195 8.55569 2.3149 7.9348C2.31713 7.82776 2.31949 7.71461 2.31949 7.5951C2.31965 7.44103 2.36173 7.2897 2.44151 7.15631C2.52128 7.02292 2.63594 6.91215 2.77399 6.83512V9.23366ZM8.68752 7.92822C8.70129 8.52941 8.71118 8.96096 8.22805 9.23366V6.83512C8.3661 6.91215 8.48076 7.02292 8.56054 7.15631C8.64031 7.2897 8.68239 7.44103 8.68255 7.5951C8.68255 7.71141 8.6851 7.82247 8.68752 7.92822ZM5.50102 16.381C5.05156 16.381 4.61219 16.2522 4.23848 16.0108C3.86476 15.7695 3.57349 15.4264 3.40148 15.0251C3.22948 14.6237 3.18448 14.1821 3.27216 13.756C3.35985 13.3299 3.57629 12.9386 3.89411 12.6314C4.21192 12.3242 4.61685 12.115 5.05767 12.0302C5.4985 11.9455 5.95543 11.989 6.37068 12.1552C6.78593 12.3215 7.14085 12.603 7.39056 12.9642C7.64026 13.3254 7.77354 13.7501 7.77354 14.1845C7.77354 14.7671 7.53412 15.3257 7.10794 15.7377C6.68176 16.1496 6.10373 16.381 5.50102 16.381Z" fill="#30C884"/>
</svg>
