<svg width="160" height="40" viewBox="0 0 160 40" fill="none" xmlns="http://www.w3.org/2000/svg">
<path d="M160 34C160 37.3137 157.314 40 154 40H9.3073C5.0773 40 2.17538 35.7403 3.72365 31.8039L14.7364 3.80388C15.6391 1.50894 17.854 0 20.3201 0H154C157.314 0 160 2.68629 160 6V34Z" fill="#78D4AB"/>
<path d="M56.344 24.51C56.3627 24.538 56.372 24.5893 56.372 24.664C56.372 24.7573 56.3393 24.8367 56.274 24.902C56.218 24.9673 56.1433 25 56.05 25H55.322C55.1633 25 55.042 24.93 54.958 24.79L52.256 20.646H50.548V24.678C50.548 24.7713 50.5153 24.8507 50.45 24.916C50.3847 24.972 50.3053 25 50.212 25H49.54C49.4467 25 49.372 24.972 49.316 24.916C49.26 24.8507 49.232 24.7713 49.232 24.678V15.536C49.232 15.4333 49.26 15.354 49.316 15.298C49.372 15.2327 49.4467 15.2 49.54 15.2H50.212C50.3147 15.2 50.394 15.2327 50.45 15.298C50.5153 15.354 50.548 15.4333 50.548 15.536V19.428L52.158 19.442L54.664 15.424C54.7667 15.2747 54.93 15.2 55.154 15.2H55.854C55.9473 15.2 56.0173 15.228 56.064 15.284C56.1107 15.3307 56.134 15.396 56.134 15.48C56.134 15.5267 56.1107 15.5873 56.064 15.662L53.376 19.946L56.344 24.51ZM63.1751 17.72C63.2498 17.72 63.3151 17.748 63.3711 17.804C63.4365 17.86 63.4691 17.9253 63.4691 18C63.4691 18.0373 63.4411 18.1213 63.3851 18.252L60.7251 24.552L60.5991 24.846C60.3471 25.4433 60.1185 25.9287 59.9131 26.302C59.7171 26.6753 59.4651 26.9927 59.1571 27.254C58.8585 27.5247 58.5038 27.66 58.0931 27.66H57.5611C57.4678 27.66 57.3885 27.6273 57.3231 27.562C57.2671 27.506 57.2391 27.4313 57.2391 27.338V26.904C57.2391 26.8107 57.2671 26.7313 57.3231 26.666C57.3885 26.61 57.4678 26.582 57.5611 26.582H57.9251C58.1305 26.582 58.2985 26.54 58.4291 26.456C58.5598 26.372 58.6765 26.2367 58.7791 26.05C58.8911 25.8633 59.0311 25.574 59.1991 25.182L59.4371 24.608L56.7071 18.252C56.6605 18.1307 56.6371 18.0513 56.6371 18.014C56.6371 17.93 56.6651 17.86 56.7211 17.804C56.7771 17.748 56.8471 17.72 56.9311 17.72H57.5471C57.6965 17.72 57.8085 17.7947 57.8831 17.944L60.0671 23.124L62.2371 17.944C62.3025 17.7947 62.4191 17.72 62.5871 17.72H63.1751ZM65.2177 25C65.1244 25 65.045 24.972 64.9797 24.916C64.9237 24.8507 64.8957 24.7713 64.8957 24.678V18.042C64.8957 17.9487 64.9237 17.874 64.9797 17.818C65.045 17.7527 65.1244 17.72 65.2177 17.72H70.7337C70.827 17.72 70.9017 17.7527 70.9577 17.818C71.0137 17.874 71.0417 17.9487 71.0417 18.042V24.678C71.0417 24.7713 71.0137 24.8507 70.9577 24.916C70.9017 24.972 70.827 25 70.7337 25H70.1177C70.0244 25 69.945 24.972 69.8797 24.916C69.8237 24.8507 69.7957 24.7713 69.7957 24.678V18.798H66.1557V24.678C66.1557 24.7713 66.123 24.8507 66.0577 24.916C66.0017 24.972 65.927 25 65.8337 25H65.2177ZM79.2992 17.72C79.3739 17.72 79.4439 17.748 79.5092 17.804C79.5745 17.86 79.6072 17.9253 79.6072 18V24.678C79.6072 24.7713 79.5745 24.8507 79.5092 24.916C79.4532 24.972 79.3785 25 79.2852 25H78.6692C78.5759 25 78.4965 24.972 78.4312 24.916C78.3752 24.8507 78.3472 24.7713 78.3472 24.678V19.554L74.4272 24.79C74.3245 24.93 74.2032 25 74.0632 25H73.4612C73.3865 25 73.3165 24.972 73.2512 24.916C73.1952 24.8507 73.1672 24.7807 73.1672 24.706V18.042C73.1672 17.9487 73.1952 17.874 73.2512 17.818C73.3165 17.7527 73.3959 17.72 73.4892 17.72H74.1052C74.1985 17.72 74.2732 17.7527 74.3292 17.818C74.3945 17.874 74.4272 17.9487 74.4272 18.042V23.166L78.3472 17.93C78.4499 17.79 78.5712 17.72 78.7112 17.72H79.2992ZM83.8971 25C83.8038 25 83.7244 24.972 83.6591 24.916C83.6031 24.8507 83.5751 24.7713 83.5751 24.678V18.798H81.1251C81.0318 18.798 80.9524 18.77 80.8871 18.714C80.8311 18.658 80.8031 18.5833 80.8031 18.49V18.042C80.8031 17.9487 80.8311 17.874 80.8871 17.818C80.9524 17.7527 81.0318 17.72 81.1251 17.72H87.2711C87.3644 17.72 87.4391 17.7527 87.4951 17.818C87.5511 17.874 87.5791 17.9487 87.5791 18.042V18.49C87.5791 18.5833 87.5511 18.658 87.4951 18.714C87.4391 18.77 87.3644 18.798 87.2711 18.798H84.8211V24.678C84.8211 24.7713 84.7884 24.8507 84.7231 24.916C84.6671 24.972 84.5924 25 84.4991 25H83.8971ZM89.1435 25C89.0502 25 88.9708 24.972 88.9055 24.916C88.8495 24.8507 88.8215 24.7713 88.8215 24.678V18.042C88.8215 17.9487 88.8495 17.874 88.9055 17.818C88.9708 17.7527 89.0502 17.72 89.1435 17.72H89.7595C89.8528 17.72 89.9275 17.7527 89.9835 17.818C90.0488 17.874 90.0815 17.9487 90.0815 18.042V20.1H91.6635C92.5875 20.1 93.2735 20.3193 93.7215 20.758C94.1695 21.1873 94.3935 21.7987 94.3935 22.592C94.3935 23.4133 94.1555 24.02 93.6795 24.412C93.2035 24.804 92.4755 25 91.4955 25H89.1435ZM91.5515 23.978C92.1302 23.978 92.5502 23.8753 92.8115 23.67C93.0728 23.4553 93.2035 23.096 93.2035 22.592C93.2035 22.0973 93.0728 21.7287 92.8115 21.486C92.5502 21.2433 92.1302 21.122 91.5515 21.122H90.0675V23.978H91.5515Z" fill="white"/>
<g clip-path="url(#clip0)">
<path d="M111.16 22.2833H121.217C121.466 22.2833 121.684 22.1187 121.752 21.8795L123.979 14.0864C124.026 13.9184 123.994 13.7379 123.888 13.5983C123.783 13.4591 123.619 13.377 123.444 13.377H109.875L109.477 11.5864C109.421 11.3314 109.195 11.1504 108.934 11.1504H105.557C105.249 11.1504 105 11.3994 105 11.707C105 12.0148 105.249 12.2637 105.557 12.2637H108.487L110.497 21.3091C109.906 21.5662 109.49 22.1549 109.49 22.84C109.49 23.7608 110.239 24.5099 111.16 24.5099H121.217C121.525 24.5099 121.774 24.261 121.774 23.9533C121.774 23.6457 121.525 23.3966 121.217 23.3966H111.16C110.854 23.3966 110.604 23.1472 110.604 22.84C110.604 22.5328 110.854 22.2833 111.16 22.2833Z" fill="white"/>
<path d="M110.604 26.1799C110.604 27.1009 111.353 27.8499 112.274 27.8499C113.194 27.8499 113.944 27.1009 113.944 26.1799C113.944 25.2592 113.194 24.51 112.274 24.51C111.353 24.51 110.604 25.2592 110.604 26.1799Z" fill="white"/>
<path d="M118.434 26.1799C118.434 27.1009 119.183 27.8499 120.104 27.8499C121.025 27.8499 121.774 27.1009 121.774 26.1799C121.774 25.2592 121.025 24.51 120.104 24.51C119.183 24.51 118.434 25.2592 118.434 26.1799Z" fill="white"/>
</g>
<defs>
<clipPath id="clip0">
<rect width="19" height="19" fill="white" transform="translate(105 10)"/>
</clipPath>
</defs>
</svg>
