<svg width="15" height="18" viewBox="0 0 15 18" fill="none" xmlns="http://www.w3.org/2000/svg">
<path d="M14.8917 16.7362L14.8914 16.7363L14.8927 16.744C14.8974 16.7709 14.8999 16.7987 14.9 16.8271C14.9 17.1054 14.6592 17.3408 14.3495 17.3408H14.3495H14.3495H14.3495H14.3494H14.3494H14.3494H14.3494H14.3494H14.3494H14.3494H14.3493H14.3493H14.3493H14.3493H14.3493H14.3493H14.3492H14.3492H14.3492H14.3492H14.3492H14.3492H14.3491H14.3491H14.3491H14.3491H14.3491H14.349H14.349H14.349H14.349H14.349H14.349H14.3489H14.3489H14.3489H14.3489H14.3489H14.3489H14.3488H14.3488H14.3488H14.3488H14.3488H14.3488H14.3487H14.3487H14.3487H14.3487H14.3487H14.3486H14.3486H14.3486H14.3486H14.3486H14.3486H14.3485H14.3485H14.3485H14.3485H14.3485H14.3484H14.3484H14.3484H14.3484H14.3484H14.3484H14.3483H14.3483H14.3483H14.3483H14.3483H14.3483H14.3482H14.3482H14.3482H14.3482H14.3482H14.3482H14.3481H14.3481H14.3481H14.3481H14.3481H14.3481H14.348H14.348H14.348H14.348H14.348H14.348H14.3479H14.3479H14.3479H14.3479H14.3479H14.3479H14.3478H14.3478H14.3478H14.3478H14.3478H0.650491C0.494024 17.3408 0.345986 17.2787 0.242231 17.1716C0.138732 17.0648 0.0887057 16.9234 0.102151 16.7818C0.102152 16.7818 0.102152 16.7818 0.102153 16.7818L1.20929 5.15082L1.20929 5.15082C1.23406 4.89042 1.46767 4.68262 1.75763 4.68262H4.0334H4.1334V4.58262V3.61505C4.1334 1.87242 5.638 0.444727 7.49974 0.444727C9.36157 0.444727 10.8663 1.87243 10.8663 3.61505V4.58262V4.68262H10.9663H13.2405C13.5305 4.68262 13.7641 4.89042 13.7889 5.15082L14.8917 16.7362ZM9.66544 4.68262H9.76544V4.58262V3.61505C9.76544 2.42787 8.74362 1.47199 7.49983 1.47199C6.25611 1.47199 5.23438 2.42787 5.23438 3.61505V4.58262V4.68262H5.33438H9.66544ZM2.35235 5.70988H2.26142L2.2528 5.8004L1.26249 16.2041L1.36204 16.2136V16.3136H13.6362H13.7462L13.7358 16.2041L12.7455 5.8004L12.7368 5.70988H12.6459H10.9664H10.8664V5.80988V6.90721C10.8664 7.18546 10.6256 7.42084 10.3159 7.42084C10.0063 7.42084 9.76544 7.18546 9.76544 6.90721V5.80988V5.70988H9.66544H5.33438H5.23438V5.80988V6.90721C5.23438 7.18546 4.99356 7.42084 4.68389 7.42084C4.37422 7.42084 4.1334 7.18546 4.1334 6.90721V5.80988V5.70988H4.0334H2.35235Z" fill="#737C92" stroke="#737C92" stroke-width="0.2"/>
</svg>
