<svg width="21" height="24" viewBox="0 0 21 24" fill="none" xmlns="http://www.w3.org/2000/svg">
<path fill-rule="evenodd" clip-rule="evenodd" d="M18.8174 0.773926H12.0083C10.8998 0.773926 10.0009 1.71056 10.0009 2.86563V15.2239C10.0009 16.3794 10.8998 17.3156 12.0083 17.3156H18.8174C19.9263 17.3156 20.8248 16.379 20.8248 15.2239V2.86563C20.8252 1.71056 19.9263 0.773926 18.8174 0.773926ZM13.7294 2.00843H17.0966C17.2598 2.00843 17.392 2.14619 17.392 2.31623C17.392 2.48626 17.2598 2.62402 17.0966 2.62402H13.7294C13.5663 2.62402 13.434 2.48626 13.434 2.31623C13.434 2.14578 13.5663 2.00843 13.7294 2.00843ZM13.7294 15.8486H12.4661C12.3029 15.8486 12.1707 15.7108 12.1707 15.5408C12.1707 15.3708 12.3029 15.233 12.4661 15.233H13.7294C13.8926 15.233 14.0248 15.3708 14.0248 15.5408C14.0244 15.7108 13.8922 15.8486 13.7294 15.8486ZM15.4128 16.3554C14.9813 16.3554 14.6311 15.9905 14.6311 15.5408C14.6311 15.0911 14.9813 14.7262 15.4128 14.7262C15.8448 14.7262 16.1946 15.0911 16.1946 15.5408C16.1946 15.9909 15.8448 16.3554 15.4128 16.3554ZM18.36 15.8486H17.0966C16.9335 15.8486 16.8013 15.7108 16.8013 15.5408C16.8013 15.3708 16.9335 15.233 17.0966 15.233H18.36C18.5232 15.233 18.6554 15.3708 18.6554 15.5408C18.6554 15.7108 18.5232 15.8486 18.36 15.8486ZM18.9615 13.7441H11.8646V3.65622H18.9615V13.7441Z" fill="#30C884"/>
<path d="M3.27807 15.4796L1.27187 13.7375C0.999509 13.5012 0.842285 13.1512 0.842285 12.7822V11.3744C0.842285 10.6872 1.37669 10.1303 2.03616 10.1303H2.19807V6.74289C2.19807 6.35897 2.49942 6.04497 2.86786 6.04497C3.23631 6.04497 3.53765 6.35897 3.53765 6.74289V10.1303H5.98658V6.74289C5.98658 6.35897 6.28792 6.04497 6.65637 6.04497C7.02481 6.04497 7.32616 6.35897 7.32616 6.74289V10.1303H7.76649C8.42596 10.1303 8.96036 10.6872 8.96036 11.3744V12.7822C8.96036 13.1512 8.80314 13.5016 8.53078 13.7379L6.52458 15.48C6.25222 15.7162 6.095 16.0666 6.095 16.4356V17.2734C6.095 17.7684 5.81768 18.1958 5.41607 18.3961V18.517C5.32515 20.3017 7.05422 22.8324 9.67541 22.8324C13.2114 22.8324 14.4894 18.7027 14.5077 18.4893H15.6654C15.4859 20.6377 13.2586 23.9035 9.67541 23.9039C6.3205 23.9039 4.38776 21.2024 4.38776 18.517V18.3969C3.9853 18.1969 3.70726 17.7691 3.70726 17.2734V16.4356C3.70726 16.0662 3.55003 15.7162 3.27807 15.4796Z" fill="#30C884"/>
</svg>
