<svg width="14" height="21" viewBox="0 0 14 21" fill="none" xmlns="http://www.w3.org/2000/svg">
<path d="M12.2857 4.76831H6.71429C5.77143 4.76831 5 5.54669 5 6.49804V19.0386C5 19.9899 5.77143 20.7683 6.71429 20.7683H12.2857C13.2286 20.7683 14 19.9899 14 19.0386V6.49804C14 5.54669 13.2286 4.76831 12.2857 4.76831ZM7.78571 7.36291H6.71429C6.24093 7.36291 5.85714 6.97566 5.85714 6.49804C5.85714 6.02042 6.24093 5.63318 6.71429 5.63318H7.78571C8.25907 5.63318 8.64286 6.02042 8.64286 6.49804C8.64286 6.97566 8.25907 7.36291 7.78571 7.36291Z" fill="#30C884"/>
<path d="M4.13043 18.0794V5.83498C4.13043 4.78554 5.0063 3.93498 6.08696 3.93498H10V2.4572C10 1.52831 9.21739 0.768311 8.47826 0.768311H1.73891C0.565 0.768311 0 1.52831 0 2.4572V18.0794C0 19.0083 0.782609 19.7683 1.73913 19.7683H4.45652C4.02174 19.4516 4.13043 18.8158 4.13043 18.0794ZM3.04348 3.30164H1.73913C1.25891 3.30164 0.869565 2.92354 0.869565 2.4572C0.869565 1.99085 1.25891 1.61276 1.73913 1.61276H3.04348C3.5237 1.61276 3.91304 1.99085 3.91304 2.4572C3.91304 2.92354 3.5237 3.30164 3.04348 3.30164Z" fill="#30C884"/>
</svg>
