<svg width="18" height="18" viewBox="0 0 18 18" fill="none" xmlns="http://www.w3.org/2000/svg">
<path d="M9 14.7694C9 14.7694 1.96875 11.0296 1.96875 6.48851C1.96889 5.68589 2.26171 4.90808 2.79741 4.28734C3.33312 3.66659 4.07865 3.24122 4.90724 3.08355C5.73584 2.92588 6.59636 3.04564 7.34249 3.42246C8.08863 3.79929 8.67432 4.40992 9.00001 5.15054L8.99999 5.15055C9.32567 4.40992 9.91137 3.79929 10.6575 3.42246C11.4036 3.04564 12.2642 2.92588 13.0928 3.08355C13.9214 3.24122 14.6669 3.66659 15.2026 4.28734C15.7383 4.90808 16.0311 5.68589 16.0312 6.48851C16.0312 11.0296 9 14.7694 9 14.7694Z" stroke="#737C92" stroke-width="1.25" stroke-linecap="round" stroke-linejoin="round"/>
</svg>
