<svg width="42" height="42" viewBox="0 0 42 42" fill="none" xmlns="http://www.w3.org/2000/svg">
<rect width="42" height="42" rx="21" fill="white" fill-opacity="0.2"/>
<path fill-rule="evenodd" clip-rule="evenodd" d="M24.5185 28.6756C25.6019 29.1496 26.0082 28.1565 26.0082 28.1565L28.8749 13.7556C28.8523 12.785 27.5431 13.3719 27.5431 13.3719L11.4945 19.6694C11.4945 19.6694 10.727 19.9403 10.7948 20.4143C10.8625 20.8883 11.4719 21.114 11.4719 21.114L15.5123 22.4684C15.5123 22.4684 16.7312 26.4636 16.9795 27.231C17.2052 27.9759 17.4083 27.9985 17.4083 27.9985C17.6341 28.0888 17.8372 27.9308 17.8372 27.9308L20.4555 25.5607L24.5185 28.6756ZM25.2181 16.3062C25.2181 16.3062 25.7824 15.9676 25.7598 16.3062C25.7598 16.3062 25.8501 16.3513 25.5567 16.6673C25.2858 16.9382 18.898 22.6714 18.0402 23.4389C17.9725 23.484 17.9274 23.5517 17.9274 23.642L17.6791 25.7638C17.6339 25.9895 17.3405 26.0121 17.2728 25.8089L16.2119 22.3329C16.1668 22.1974 16.2119 22.0394 16.3473 21.9491L25.2181 16.3062Z" fill="white"/>
</svg>
