<svg width="42" height="42" viewBox="0 0 42 42" fill="none" xmlns="http://www.w3.org/2000/svg">
<rect width="42" height="42" rx="21" fill="white" fill-opacity="0.2"/>
<path fill-rule="evenodd" clip-rule="evenodd" d="M29.7659 16.5498C29.8937 16.0888 29.7659 15.75 29.158 15.75H27.1477C26.6365 15.75 26.4011 16.0427 26.2733 16.3655C26.2733 16.3655 25.2509 19.0626 23.8027 20.8146C23.3342 21.3218 23.1212 21.4829 22.8656 21.4829C22.7378 21.4829 22.5529 21.3218 22.5529 20.8608V16.5498C22.5529 15.9965 22.4046 15.75 21.9785 15.75H18.8196C18.5003 15.75 18.3081 16.0068 18.3081 16.2502C18.3081 16.7747 19.0321 16.8957 19.1068 18.371V21.5754C19.1068 22.278 18.9896 22.4054 18.734 22.4054C18.0526 22.4054 16.395 19.696 15.4117 16.596C15.219 15.9934 15.0257 15.75 14.512 15.75H12.5017C11.9274 15.75 11.8125 16.0427 11.8125 16.3655C11.8125 16.9418 12.4941 19.8004 14.9858 23.5811C16.6471 26.1627 18.9873 27.5625 21.117 27.5625C22.395 27.5625 22.5529 27.2516 22.5529 26.7162V24.7648C22.5529 24.1431 22.6739 24.0191 23.0784 24.0191C23.3768 24.0191 23.8878 24.1804 25.0806 25.4252C26.4436 26.9004 26.6681 27.5625 27.4349 27.5625H29.4451C30.0195 27.5625 30.3067 27.2516 30.141 26.6382C29.9598 26.0267 29.309 25.1398 28.4455 24.0882C27.9769 23.4887 27.2741 22.8433 27.0613 22.5206C26.763 22.1056 26.8482 21.9213 27.0613 21.5526C27.0613 21.5526 29.5103 17.8178 29.7659 16.5498Z" fill="white"/>
</svg>
