<svg width="42" height="42" viewBox="0 0 42 42" fill="none" xmlns="http://www.w3.org/2000/svg">
<rect width="42" height="42" rx="21" fill="white" fill-opacity="0.2"/>
<path fill-rule="evenodd" clip-rule="evenodd" d="M29.2166 14.0982C30.1161 14.3404 30.8253 15.0496 31.0675 15.9491C31.5172 17.5924 31.4999 21.0174 31.4999 21.0174C31.4999 21.0174 31.4999 24.4252 31.0675 26.0685C30.8253 26.968 30.1161 27.6772 29.2166 27.9194C27.5732 28.3518 21 28.3518 21 28.3518C21 28.3518 14.444 28.3518 12.7834 27.9021C11.8838 27.6599 11.1746 26.9507 10.9325 26.0512C10.5 24.4252 10.5 21.0001 10.5 21.0001C10.5 21.0001 10.5 17.5924 10.9325 15.9491C11.1746 15.0496 11.9011 14.3231 12.7834 14.0809C14.4267 13.6484 21 13.6484 21 13.6484C21 13.6484 27.5732 13.6484 29.2166 14.0982ZM24.3735 21.0002L18.9073 24.1485V17.852L24.3735 21.0002Z" fill="white"/>
</svg>
