<svg width="42" height="42" viewBox="0 0 42 42" fill="none" xmlns="http://www.w3.org/2000/svg">
<rect width="42" height="42" rx="21" fill="white" fill-opacity="0.2"/>
<path d="M27.7234 14.3027C26.1427 12.6887 23.9576 11.8125 21.726 11.8125C16.9838 11.8125 13.1715 15.64 13.218 20.2976C13.218 21.7733 13.6364 23.2029 14.3338 24.4941L13.125 28.875L17.6347 27.7221C18.89 28.4139 20.2847 28.7367 21.6795 28.7367C26.3752 28.7367 30.1875 24.9091 30.1875 20.2515C30.1875 17.9919 29.3042 15.8706 27.7234 14.3027ZM21.726 27.3071C20.4707 27.3071 19.2154 26.9843 18.1461 26.3387L17.8672 26.2003L15.1706 26.8921L15.868 24.2635L15.6821 23.9868C13.6364 20.7127 14.6127 16.3779 17.9601 14.3488C21.3076 12.3198 25.6313 13.2882 27.6769 16.6084C29.7226 19.9287 28.7463 24.2174 25.3988 26.2465C24.3295 26.9382 23.0278 27.3071 21.726 27.3071ZM25.8173 22.1883L25.3059 21.9578C25.3059 21.9578 24.562 21.635 24.0971 21.4044C24.0506 21.4044 24.0041 21.3583 23.9576 21.3583C23.8181 21.3583 23.7251 21.4044 23.6322 21.4505C23.6322 21.4505 23.5857 21.4966 22.9348 22.2345C22.8883 22.3267 22.7953 22.3728 22.7023 22.3728H22.6558C22.6093 22.3728 22.5163 22.3267 22.4699 22.2806L22.2374 22.1883C21.726 21.9578 21.2611 21.6811 20.8891 21.3122C20.7962 21.2199 20.6567 21.1277 20.5637 21.0355C20.2382 20.7127 19.9128 20.3438 19.6803 19.9287L19.6339 19.8365C19.5874 19.7904 19.5874 19.7443 19.5409 19.652C19.5409 19.5598 19.5409 19.4676 19.5874 19.4215C19.5874 19.4215 19.7733 19.1909 19.9128 19.0525C20.0058 18.9603 20.0523 18.822 20.1453 18.7297C20.2382 18.5914 20.2847 18.4069 20.2382 18.2686C20.1918 18.038 19.6339 16.7929 19.4944 16.5162C19.4014 16.3779 19.3084 16.3318 19.1689 16.2856H19.0295C18.9365 16.2856 18.797 16.2856 18.6575 16.2856C18.5645 16.2856 18.4716 16.3318 18.3786 16.3318L18.3321 16.3779C18.2391 16.424 18.1461 16.5162 18.0531 16.5623C17.9602 16.6546 17.9137 16.7468 17.8207 16.839C17.4952 17.2541 17.3093 17.7613 17.3093 18.2686C17.3093 18.6375 17.4022 19.0064 17.5417 19.3292L17.5882 19.4676C18.0066 20.3438 18.5645 21.1277 19.3084 21.8194L19.4944 22.0039C19.6339 22.1422 19.7733 22.2345 19.8663 22.3728C20.8426 23.2029 21.9584 23.8024 23.2137 24.1252C23.3532 24.1713 23.5392 24.1713 23.6786 24.2174C23.8181 24.2174 24.0041 24.2174 24.1436 24.2174C24.376 24.2174 24.655 24.1252 24.8409 24.0329C24.9804 23.9407 25.0734 23.9407 25.1664 23.8485L25.2594 23.7563C25.3524 23.664 25.4453 23.6179 25.5383 23.5257C25.6313 23.4334 25.7243 23.3412 25.7708 23.249C25.8638 23.0645 25.9103 22.834 25.9567 22.6034C25.9567 22.5111 25.9567 22.3728 25.9567 22.2806C25.9567 22.2806 25.9103 22.2345 25.8173 22.1883Z" fill="white"/>
</svg>
