<svg width="14" height="21" viewBox="0 0 14 21" fill="none" xmlns="http://www.w3.org/2000/svg">
<path d="M1.02813 0.773926C0.628742 0.773926 0.305908 1.09393 0.305908 1.48821V20.0596C0.305908 20.4539 0.628742 20.7739 1.02813 20.7739H8.25035C9.24774 20.7739 10.0552 19.9746 10.0559 18.9882C10.0559 18.4225 9.79289 17.897 9.33369 17.5596C9.27072 17.5134 9.22046 17.4322 9.19827 17.3587C9.14101 17.1693 9.25587 16.9911 9.44653 16.9346L13.3059 15.7739V1.48821C13.3059 1.09393 12.9831 0.773926 12.5837 0.773926H1.02813ZM4.63924 2.55964C4.63924 2.3624 4.79914 2.2025 4.99638 2.2025H8.61543C8.81268 2.2025 8.97258 2.3624 8.97258 2.55964C8.97258 2.75688 8.81268 2.91678 8.61543 2.91678H4.99638C4.79914 2.91678 4.63924 2.75688 4.63924 2.55964ZM6.80591 16.8454C7.60396 16.8454 8.25035 17.4854 8.25035 18.2739C8.25035 19.0625 7.60396 19.7025 6.80591 19.7025C6.00857 19.7025 5.36146 19.0625 5.36146 18.2739C5.36146 17.4854 6.00857 16.8454 6.80591 16.8454Z" fill="#30C884"/>
<path d="M10.7875 18.7739C10.7514 18.2847 10.5842 17.8182 10.3059 17.4337L12.3059 16.7739L10.7875 18.7739Z" fill="#30C884"/>
</svg>
