<svg width="18" height="18" viewBox="0 0 18 18" fill="none" xmlns="http://www.w3.org/2000/svg">
<path d="M4.6897 16.2739C4.6897 17.1039 5.3597 17.7739 6.1897 17.7739C7.0197 17.7739 7.6897 17.1039 7.6897 16.2739V15.7739H4.6897V16.2739Z" fill="#30C884"/>
<path d="M3.6897 0.773926C2.6197 0.773926 1.6097 1.17239 0.859697 1.89393C0.749697 1.99085 0.689697 2.14162 0.689697 2.29239V6.79393C0.689697 6.9447 0.749697 7.09546 0.859697 7.19239C1.8497 8.14008 3.3497 8.52777 4.6897 8.19393V14.7739H7.6897V4.54316C7.6897 2.4647 5.8997 0.773926 3.6897 0.773926ZM2.2097 5.08162C1.9337 5.08162 1.7047 4.84039 1.7047 4.54316C1.7047 4.24593 1.9237 4.0047 2.1997 4.0047H2.2097C2.4857 4.0047 2.7097 4.24593 2.7097 4.54316C2.7097 4.84039 2.4857 5.08162 2.2097 5.08162ZM5.1897 5.08162C4.9137 5.08162 4.6897 4.84039 4.6897 4.54316C4.6897 4.24593 4.4657 4.0047 4.1897 4.0047C3.9137 4.0047 3.6897 3.76346 3.6897 3.46623C3.6897 3.169 3.9137 2.92777 4.1897 2.92777C5.0167 2.92777 5.6897 3.65254 5.6897 4.54316C5.6897 4.84039 5.4657 5.08162 5.1897 5.08162Z" fill="#30C884"/>
<path d="M10.6897 16.2739C10.6897 17.1039 11.3597 17.7739 12.1897 17.7739C13.0197 17.7739 13.6897 17.1039 13.6897 16.2739V15.7739H10.6897V16.2739Z" fill="#30C884"/>
<path d="M17.5197 1.89393C16.7697 1.17239 15.7597 0.773926 14.6897 0.773926C12.4797 0.773926 10.6897 2.4647 10.6897 4.54316V14.7739H13.6897V8.19393C15.0297 8.52777 16.5297 8.14008 17.5197 7.19239C17.6297 7.09546 17.6897 6.9447 17.6897 6.79393V2.29239C17.6897 2.14162 17.6297 1.99085 17.5197 1.89393ZM14.1897 4.0047C13.9137 4.0047 13.6897 4.24593 13.6897 4.54316C13.6897 4.84039 13.4657 5.08162 13.1897 5.08162C12.9137 5.08162 12.6897 4.84039 12.6897 4.54316C12.6897 3.65254 13.3627 2.92777 14.1897 2.92777C14.4657 2.92777 14.6897 3.169 14.6897 3.46623C14.6897 3.76346 14.4657 4.0047 14.1897 4.0047ZM16.1697 5.08162C15.8937 5.08162 15.6697 4.84039 15.6697 4.54316C15.6697 4.24593 15.8937 4.0047 16.1697 4.0047H16.1797C16.4557 4.0047 16.6747 4.24593 16.6747 4.54316C16.6747 4.84039 16.4457 5.08162 16.1697 5.08162Z" fill="#30C884"/>
</svg>
