<svg width="24" height="22" viewBox="0 0 24 22" fill="none" xmlns="http://www.w3.org/2000/svg">
<path d="M11.9999 19.5335C11.9999 19.5335 1.33325 14.1032 1.33325 7.50923C1.33347 6.34378 1.77768 5.21437 2.59037 4.31303C3.40305 3.41168 4.53404 2.79402 5.79105 2.56507C7.04806 2.33613 8.3535 2.51002 9.48542 3.05719C10.6173 3.60435 11.5059 4.49102 11.9999 5.56644L11.9999 5.56645C12.494 4.49103 13.3825 3.60436 14.5144 3.05719C15.6463 2.51002 16.9518 2.33613 18.2088 2.56507C19.4658 2.79402 20.5968 3.41167 21.4095 4.31302C22.2222 5.21437 22.6664 6.34378 22.6666 7.50923C22.6666 14.1032 11.9999 19.5335 11.9999 19.5335Z" stroke="#737C92" stroke-width="1.6" stroke-linecap="round" stroke-linejoin="round"/>
</svg>
