<svg width="22" height="26" viewBox="0 0 22 26" fill="none" xmlns="http://www.w3.org/2000/svg">
<path d="M3.34408 21.779C3.67042 19.5522 4.27694 17.7984 5.01938 16.4263C5.58751 15.3758 6.23449 14.5498 6.88666 13.9068C7.71057 13.0934 8.54018 12.5738 9.22867 12.2441L8.89921 9.21131L10.368 9.10917L9.61416 2.37102C9.53063 1.62274 10.0661 0.989306 10.8044 0.964434L16.3911 0.774455C16.4062 0.773926 16.4212 0.773926 16.4368 0.773926C17.1569 0.773926 17.8107 1.35603 17.9009 2.0879L18.674 8.33656L20.6912 8.86998L21.1338 11.8213L19.3827 14.0719L19.8154 17.5709C19.9078 18.3181 19.391 19.0521 18.6673 19.2013L12.9752 20.3761C12.8875 20.3941 12.8003 20.4031 12.7157 20.4031C12.0999 20.4031 11.5805 19.9448 11.5069 19.2871L11.0716 15.3943L9.58511 15.5261L9.45021 14.282C8.15313 15.5536 6.53282 17.9128 6.38806 21.833C8.06389 22.1473 9.23489 22.9178 9.20843 23.8148C9.17367 24.9843 7.11858 25.9241 4.61833 25.9151C2.11756 25.9061 0.118496 24.9515 0.153258 23.782C0.180237 22.8406 1.51831 22.0478 3.34408 21.779ZM17.0516 3.42622L10.7821 3.74744L11.4835 10.0178L12.2337 10.2517L12.668 13.8348L11.9541 14.2264L12.3048 17.364L18.6413 16.2829L17.0516 3.42622ZM16.5707 18.2123C16.4871 17.6963 16.1317 17.3275 15.7763 17.3873C15.4214 17.4471 15.2015 17.9138 15.285 18.4292C15.3685 18.9447 15.7239 19.314 16.0793 19.2542C16.4342 19.1944 16.6542 18.7277 16.5707 18.2123Z" fill="#30C884"/>
</svg>
