<svg width="71" height="31" viewBox="0 0 71 31" fill="none" xmlns="http://www.w3.org/2000/svg">
<path d="M71 25C71 28.3137 68.3137 31 65 31H9.68219C5.22819 31 2.32688 26.3182 4.3092 22.3296L13.7522 3.32961C14.766 1.28983 16.8474 0 19.1252 0H65C68.3137 0 71 2.68629 71 6V25Z" fill="#78D4AB"/>
<g clip-path="url(#clip0)">
<path d="M35.6602 18.2833H45.7169C45.966 18.2833 46.1844 18.1187 46.2518 17.8795L48.4785 10.0864C48.5264 9.91837 48.4936 9.7379 48.3882 9.5983C48.2827 9.45914 48.1186 9.37695 47.9435 9.37695H34.3751L33.9772 7.58643C33.9207 7.33144 33.6945 7.15039 33.4336 7.15039H30.0566C29.749 7.15039 29.5 7.39943 29.5 7.70703C29.5 8.01478 29.749 8.26367 30.0566 8.26367H32.9868L34.997 17.3091C34.4055 17.5662 33.9902 18.1549 33.9902 18.84C33.9902 19.7608 34.7394 20.5099 35.6602 20.5099H45.7169C46.0247 20.5099 46.2736 20.261 46.2736 19.9533C46.2736 19.6457 46.0247 19.3966 45.7169 19.3966H35.6602C35.3536 19.3966 35.1035 19.1472 35.1035 18.84C35.1035 18.5328 35.3536 18.2833 35.6602 18.2833Z" fill="white"/>
<path d="M35.1035 22.1798C35.1035 23.1007 35.8527 23.8497 36.7736 23.8497C37.6944 23.8497 38.4435 23.1007 38.4435 22.1798C38.4435 21.259 37.6944 20.5099 36.7736 20.5099C35.8527 20.5099 35.1035 21.259 35.1035 22.1798Z" fill="white"/>
<path d="M42.9338 22.1798C42.9338 23.1007 43.683 23.8497 44.6038 23.8497C45.5247 23.8497 46.2737 23.1007 46.2737 22.1798C46.2737 21.259 45.5247 20.5099 44.6038 20.5099C43.683 20.5099 42.9338 21.259 42.9338 22.1798Z" fill="white"/>
</g>
<defs>
<clipPath id="clip0">
<rect width="19" height="19" fill="white" transform="translate(29.5 6)"/>
</clipPath>
</defs>
</svg>
