<svg width="16" height="15" viewBox="0 0 16 15" fill="none" xmlns="http://www.w3.org/2000/svg">
<path d="M4.25 0C5.11822 0 5.91422 0.275125 6.61584 0.81775C7.2885 1.33797 7.73634 2.00056 8 2.48237C8.26366 2.00053 8.7115 1.33797 9.38416 0.81775C10.0858 0.275125 10.8818 0 11.75 0C14.1729 0 16 1.98178 16 4.60981C16 7.449 13.7205 9.39153 10.2697 12.3322C9.68372 12.8317 9.0195 13.3977 8.32912 14.0014C8.23812 14.0811 8.12125 14.125 8 14.125C7.87875 14.125 7.76187 14.0811 7.67087 14.0015C6.98044 13.3977 6.31625 12.8316 5.72991 12.3319C2.27947 9.39153 0 7.449 0 4.60981C0 1.98178 1.82713 0 4.25 0Z" fill="#D2DAE0"/>
</svg>
