<svg width="18" height="20" viewBox="0 0 18 20" fill="none" xmlns="http://www.w3.org/2000/svg">
<path d="M17.8785 18.961L16.5715 5.70885C16.5358 5.34694 16.2026 5.06974 15.8036 5.06974H13.1082V3.96297C13.1082 1.90029 11.2651 0.222168 8.99966 0.222168C6.73429 0.222168 4.89141 1.90029 4.89141 3.96297V5.06974H2.1942C1.79515 5.06974 1.462 5.34694 1.42633 5.70885L0.114167 19.0131C0.0948414 19.2095 0.167003 19.404 0.313073 19.5495C0.459143 19.6949 0.665655 19.7777 0.882036 19.7777H17.1159H17.1179C17.5438 19.7777 17.8889 19.4635 17.8889 19.0758C17.8888 19.0368 17.8853 18.9983 17.8785 18.961ZM6.43331 3.96297C6.43331 2.67436 7.5846 1.62599 8.99977 1.62599C10.415 1.62599 11.5664 2.67436 11.5664 3.96297V5.06974H6.43331V3.96297ZM1.72536 18.374L2.89906 6.47356H4.89141V7.72876C4.89141 8.1164 5.23649 8.43066 5.66236 8.43066C6.08824 8.43066 6.43331 8.1164 6.43331 7.72876V6.47356H11.5664V7.72876C11.5664 8.1164 11.9115 8.43066 12.3374 8.43066C12.7633 8.43066 13.1083 8.1164 13.1083 7.72876V6.47356H15.0988L16.2725 18.374H1.72536Z" fill="#737C92"/>
</svg>
