<svg width="23" height="20" viewBox="0 0 23 20" fill="none" xmlns="http://www.w3.org/2000/svg">
<g filter="url(#filter0_d)">
<path d="M17.1194 13.3122L17.1194 13.3123C17.2447 13.4375 17.4478 13.4375 17.5731 13.3123L17.5731 13.3122L17.956 12.9293L17.9207 12.8939L17.956 12.9293C18.0813 12.804 18.0813 12.6008 17.956 12.4756L14.2113 8.73086C14.9176 7.84352 15.3417 6.72185 15.3417 5.50206C15.3417 2.63703 13.0109 0.306201 10.1458 0.306201C7.28081 0.306201 4.95 2.63703 4.95 5.50206C4.95 8.36708 7.28083 10.6979 10.1459 10.6979C11.3657 10.6979 12.4873 10.2738 13.3747 9.56754L17.1194 13.3122ZM10.1459 9.51456C7.93327 9.51456 6.13334 7.71464 6.13334 5.50206C6.13334 3.28948 7.93327 1.48955 10.1459 1.48955C12.3584 1.48955 14.1584 3.28948 14.1584 5.50206C14.1584 7.71464 12.3584 9.51456 10.1459 9.51456Z" fill="#737C92" stroke="#737C92" stroke-width="0.1"/>
</g>
<defs>
<filter id="filter0_d" x="0.899902" y="0.256104" width="21.2" height="21.2" filterUnits="userSpaceOnUse" color-interpolation-filters="sRGB">
<feFlood flood-opacity="0" result="BackgroundImageFix"/>
<feColorMatrix in="SourceAlpha" type="matrix" values="0 0 0 0 0 0 0 0 0 0 0 0 0 0 0 0 0 0 127 0" result="hardAlpha"/>
<feOffset dy="4"/>
<feGaussianBlur stdDeviation="2"/>
<feComposite in2="hardAlpha" operator="out"/>
<feColorMatrix type="matrix" values="0 0 0 0 0 0 0 0 0 0 0 0 0 0 0 0 0 0 0.25 0"/>
<feBlend mode="normal" in2="BackgroundImageFix" result="effect1_dropShadow"/>
<feBlend mode="normal" in="SourceGraphic" in2="effect1_dropShadow" result="shape"/>
</filter>
</defs>
</svg>
