<svg width="21" height="21" viewBox="0 0 21 21" fill="none" xmlns="http://www.w3.org/2000/svg">
<path d="M8.52087 16.0917C10.3056 16.0917 11.9461 15.4686 13.2416 14.4318L18.7292 19.9194L18.7646 19.8841L18.7293 19.9194C18.9034 20.0935 19.1856 20.0935 19.3598 19.9194L19.3244 19.8841L19.3598 19.9194L19.9194 19.3597L19.8841 19.3244L19.9194 19.3597C20.0935 19.1856 20.0935 18.9033 19.9194 18.7292L14.4318 13.2416C15.4686 11.9461 16.0917 10.3056 16.0917 8.52086C16.0917 4.34627 12.6954 0.95 8.52083 0.95C4.34623 0.95 0.95 4.34627 0.95 8.52086C0.95 12.6955 4.34627 16.0917 8.52087 16.0917ZM8.52087 14.4084C5.27435 14.4084 2.63335 11.7674 2.63335 8.52086C2.63335 5.27435 5.27435 2.63335 8.52087 2.63335C11.7674 2.63335 14.4084 5.27435 14.4084 8.52086C14.4084 11.7674 11.7674 14.4084 8.52087 14.4084Z" fill="#A5B0B6" stroke="#A5B0B6" stroke-width="0.1"/>
</svg>
