<svg width="161" height="40" viewBox="0 0 161 40" fill="none" xmlns="http://www.w3.org/2000/svg">
<path d="M7.19269 16.6C7.25669 16.6 7.31269 16.624 7.36069 16.672C7.40869 16.72 7.43269 16.776 7.43269 16.84C7.43269 16.904 7.42069 16.96 7.39669 17.008L4.94869 22.552C4.66869 23.184 4.41669 23.668 4.19269 24.004C3.97669 24.332 3.72069 24.58 3.42469 24.748C3.12869 24.916 2.74469 25 2.27269 25H1.79269C1.71269 25 1.64469 24.976 1.58869 24.928C1.54069 24.872 1.51669 24.804 1.51669 24.724V24.22C1.51669 24.14 1.54069 24.072 1.58869 24.016C1.64469 23.96 1.71269 23.932 1.79269 23.932H2.21269C2.53269 23.932 2.79669 23.836 3.00469 23.644C3.22069 23.444 3.44069 23.112 3.66469 22.648L0.556689 16.984C0.532689 16.936 0.520689 16.892 0.520689 16.852C0.520689 16.788 0.544689 16.732 0.592689 16.684C0.648689 16.628 0.708689 16.6 0.772689 16.6H1.45669C1.57669 16.6 1.67269 16.668 1.74469 16.804L4.24069 21.352L6.24469 16.804C6.26869 16.74 6.30869 16.692 6.36469 16.66C6.42069 16.62 6.48069 16.6 6.54469 16.6H7.19269ZM11.2471 25.12C10.6151 25.12 10.0711 25.028 9.61509 24.844C9.16709 24.652 8.81909 24.396 8.57109 24.076C8.32309 23.748 8.17909 23.384 8.13909 22.984V22.96C8.13909 22.896 8.16309 22.848 8.21109 22.816C8.25909 22.776 8.31909 22.756 8.39109 22.756H8.99109C9.07909 22.756 9.15109 22.776 9.20709 22.816C9.26309 22.848 9.30309 22.912 9.3271 23.008C9.42309 23.344 9.6351 23.612 9.9631 23.812C10.2911 24.004 10.7151 24.1 11.2351 24.1C11.8111 24.1 12.2911 23.968 12.6751 23.704C13.0671 23.44 13.2631 23.08 13.2631 22.624C13.2631 22.152 13.0911 21.788 12.7471 21.532C12.4111 21.268 11.9511 21.136 11.3671 21.136H10.5151C10.4351 21.136 10.3671 21.112 10.3111 21.064C10.2631 21.008 10.2391 20.94 10.2391 20.86V20.44C10.2391 20.352 10.2631 20.284 10.3111 20.236C10.3671 20.18 10.4351 20.152 10.5151 20.152H11.3191C11.8311 20.152 12.2351 20.04 12.5311 19.816C12.8351 19.592 12.9871 19.252 12.9871 18.796C12.9871 18.404 12.8231 18.092 12.4951 17.86C12.1671 17.62 11.7591 17.5 11.2711 17.5C10.7671 17.5 10.3551 17.592 10.0351 17.776C9.71509 17.96 9.51509 18.24 9.43509 18.616C9.39509 18.776 9.29909 18.856 9.14709 18.856H8.49909C8.42709 18.856 8.36309 18.832 8.30709 18.784C8.25909 18.736 8.23909 18.676 8.24709 18.604C8.30309 17.964 8.59109 17.452 9.11109 17.068C9.63109 16.676 10.3591 16.48 11.2951 16.48C11.9031 16.48 12.4231 16.584 12.8551 16.792C13.2951 17 13.6231 17.276 13.8391 17.62C14.0631 17.964 14.1751 18.336 14.1751 18.736C14.1751 19.592 13.8551 20.208 13.2151 20.584C13.6311 20.792 13.9431 21.076 14.1511 21.436C14.3591 21.788 14.4631 22.192 14.4631 22.648C14.4631 23.136 14.3311 23.568 14.0671 23.944C13.8031 24.312 13.4271 24.6 12.9391 24.808C12.4591 25.016 11.8951 25.12 11.2471 25.12ZM16.6842 25C16.6042 25 16.5362 24.976 16.4802 24.928C16.4322 24.872 16.4082 24.804 16.4082 24.724V16.888C16.4082 16.8 16.4322 16.732 16.4802 16.684C16.5362 16.628 16.6042 16.6 16.6842 16.6H17.2962C17.3842 16.6 17.4522 16.628 17.5002 16.684C17.5562 16.732 17.5842 16.8 17.5842 16.888V20.2H21.7122V16.888C21.7122 16.8 21.7362 16.732 21.7842 16.684C21.8402 16.628 21.9082 16.6 21.9882 16.6H22.6002C22.6882 16.6 22.7562 16.628 22.8042 16.684C22.8602 16.732 22.8882 16.8 22.8882 16.888V24.724C22.8882 24.804 22.8602 24.872 22.8042 24.928C22.7482 24.976 22.6802 25 22.6002 25H21.9882C21.9082 25 21.8402 24.976 21.7842 24.928C21.7362 24.872 21.7122 24.804 21.7122 24.724V21.28H17.5842V24.724C17.5842 24.804 17.5562 24.872 17.5002 24.928C17.4442 24.976 17.3762 25 17.2962 25H16.6842ZM24.6506 25C24.5866 25 24.5306 24.976 24.4826 24.928C24.4346 24.88 24.4106 24.824 24.4106 24.76C24.4106 24.696 24.4146 24.652 24.4226 24.628L27.3986 16.864C27.4626 16.688 27.5906 16.6 27.7826 16.6H28.5986C28.7906 16.6 28.9186 16.688 28.9826 16.864L31.9466 24.628L31.9706 24.76C31.9706 24.824 31.9466 24.88 31.8986 24.928C31.8506 24.976 31.7946 25 31.7306 25H31.1186C31.0306 25 30.9626 24.98 30.9146 24.94C30.8666 24.892 30.8346 24.844 30.8186 24.796L30.1586 23.092H26.2226L25.5626 24.796C25.5466 24.844 25.5106 24.892 25.4546 24.94C25.4066 24.98 25.3426 25 25.2626 25H24.6506ZM29.8106 22.06L28.1906 17.8L26.5706 22.06H29.8106ZM35.6057 25C35.5257 25 35.4577 24.976 35.4017 24.928C35.3537 24.872 35.3297 24.804 35.3297 24.724V17.668H33.0257C32.9457 17.668 32.8777 17.644 32.8217 17.596C32.7737 17.54 32.7497 17.472 32.7497 17.392V16.888C32.7497 16.808 32.7737 16.74 32.8217 16.684C32.8777 16.628 32.9457 16.6 33.0257 16.6H38.8097C38.8977 16.6 38.9657 16.628 39.0137 16.684C39.0697 16.732 39.0977 16.8 39.0977 16.888V17.392C39.0977 17.472 39.0697 17.54 39.0137 17.596C38.9577 17.644 38.8897 17.668 38.8097 17.668H36.5177V24.724C36.5177 24.804 36.4897 24.872 36.4337 24.928C36.3777 24.976 36.3097 25 36.2297 25H35.6057ZM40.9589 25C40.8789 25 40.8109 24.976 40.7549 24.928C40.7069 24.872 40.6829 24.804 40.6829 24.724V16.876C40.6829 16.796 40.7069 16.732 40.7549 16.684C40.8109 16.628 40.8789 16.6 40.9589 16.6H41.5709C41.6509 16.6 41.7189 16.628 41.7749 16.684C41.8309 16.732 41.8589 16.796 41.8589 16.876V19.792H43.6949C44.5749 19.792 45.2509 20.012 45.7229 20.452C46.1949 20.884 46.4309 21.52 46.4309 22.36C46.4309 22.832 46.3269 23.268 46.1189 23.668C45.9189 24.068 45.6109 24.392 45.1949 24.64C44.7869 24.88 44.2869 25 43.6949 25H40.9589ZM43.5869 23.992C44.0989 23.992 44.4989 23.844 44.7869 23.548C45.0829 23.244 45.2309 22.84 45.2309 22.336C45.2309 21.304 44.6829 20.788 43.5869 20.788H41.8589V23.992H43.5869ZM51.6108 25C51.5308 25 51.4628 24.976 51.4068 24.928C51.3588 24.872 51.3348 24.804 51.3348 24.724V16.888C51.3348 16.8 51.3588 16.732 51.4068 16.684C51.4628 16.628 51.5308 16.6 51.6108 16.6H56.8308C56.9188 16.6 56.9868 16.628 57.0348 16.684C57.0908 16.732 57.1188 16.8 57.1188 16.888V17.368C57.1188 17.448 57.0908 17.516 57.0348 17.572C56.9868 17.62 56.9188 17.644 56.8308 17.644H52.5108V20.068H54.8868C55.7348 20.068 56.3948 20.288 56.8668 20.728C57.3388 21.16 57.5748 21.752 57.5748 22.504C57.5748 22.92 57.4708 23.32 57.2628 23.704C57.0628 24.08 56.7588 24.392 56.3508 24.64C55.9508 24.88 55.4628 25 54.8868 25H51.6108ZM54.7428 24.028C55.2388 24.028 55.6348 23.88 55.9308 23.584C56.2268 23.28 56.3748 22.908 56.3748 22.468C56.3748 22.028 56.2348 21.68 55.9548 21.424C55.6828 21.16 55.2788 21.028 54.7428 21.028H52.5108V24.028H54.7428ZM62.2746 25.12C61.2266 25.12 60.4146 24.848 59.8386 24.304C59.2706 23.752 58.9706 22.924 58.9386 21.82C58.9306 21.58 58.9266 21.24 58.9266 20.8C58.9266 20.36 58.9306 20.024 58.9386 19.792C58.9706 18.712 59.2826 17.892 59.8746 17.332C60.4666 16.764 61.2666 16.48 62.2746 16.48C63.2746 16.48 64.0706 16.764 64.6626 17.332C65.2546 17.892 65.5666 18.712 65.5986 19.792C65.6146 20.256 65.6226 20.592 65.6226 20.8C65.6226 21 65.6146 21.34 65.5986 21.82C65.5666 22.924 65.2626 23.752 64.6866 24.304C64.1186 24.848 63.3146 25.12 62.2746 25.12ZM62.2746 24.1C62.9066 24.1 63.4106 23.908 63.7866 23.524C64.1626 23.14 64.3666 22.552 64.3986 21.76C64.4146 21.28 64.4226 20.96 64.4226 20.8C64.4226 20.624 64.4146 20.304 64.3986 19.84C64.3666 19.048 64.1586 18.46 63.7746 18.076C63.3986 17.692 62.8986 17.5 62.2746 17.5C61.6426 17.5 61.1346 17.692 60.7506 18.076C60.3746 18.46 60.1706 19.048 60.1386 19.84C60.1306 20.072 60.1266 20.392 60.1266 20.8C60.1266 21.2 60.1306 21.52 60.1386 21.76C60.1706 22.552 60.3746 23.14 60.7506 23.524C61.1346 23.908 61.6426 24.1 62.2746 24.1ZM72.9665 25C72.8865 25 72.8185 24.976 72.7625 24.928C72.7145 24.872 72.6905 24.804 72.6905 24.724V17.68H69.7145V19.612C69.7145 20.9 69.6225 21.928 69.4385 22.696C69.2545 23.464 68.9665 24.028 68.5745 24.388C68.1825 24.748 67.6625 24.948 67.0145 24.988C66.9345 24.996 66.8665 24.972 66.8105 24.916C66.7545 24.86 66.7265 24.788 66.7265 24.7V24.172C66.7265 24.1 66.7465 24.04 66.7865 23.992C66.8345 23.936 66.8985 23.904 66.9785 23.896C67.4985 23.824 67.8905 23.44 68.1545 22.744C68.4265 22.048 68.5625 20.952 68.5625 19.456V16.876C68.5625 16.796 68.5865 16.732 68.6345 16.684C68.6905 16.628 68.7585 16.6 68.8385 16.6H73.5905C73.6705 16.6 73.7345 16.628 73.7825 16.684C73.8385 16.732 73.8665 16.8 73.8665 16.888V24.724C73.8665 24.804 73.8385 24.872 73.7825 24.928C73.7345 24.976 73.6705 25 73.5905 25H72.9665ZM76.4714 25C76.3914 25 76.3234 24.976 76.2674 24.928C76.2194 24.872 76.1954 24.804 76.1954 24.724V16.876C76.1954 16.796 76.2194 16.732 76.2674 16.684C76.3234 16.628 76.3914 16.6 76.4714 16.6H77.0834C77.1634 16.6 77.2314 16.628 77.2874 16.684C77.3434 16.732 77.3714 16.796 77.3714 16.876V19.792H79.2074C80.0874 19.792 80.7634 20.012 81.2354 20.452C81.7074 20.884 81.9434 21.52 81.9434 22.36C81.9434 22.832 81.8394 23.268 81.6314 23.668C81.4314 24.068 81.1234 24.392 80.7074 24.64C80.2994 24.88 79.7994 25 79.2074 25H76.4714ZM79.0994 23.992C79.6114 23.992 80.0114 23.844 80.2994 23.548C80.5954 23.244 80.7434 22.84 80.7434 22.336C80.7434 21.304 80.1954 20.788 79.0994 20.788H77.3714V23.992H79.0994ZM83.9419 25C83.8619 25 83.7939 24.976 83.7379 24.928C83.6899 24.872 83.6659 24.804 83.6659 24.724V16.876C83.6659 16.788 83.6899 16.72 83.7379 16.672C83.7939 16.624 83.8619 16.6 83.9419 16.6H84.5539C84.6339 16.6 84.7019 16.628 84.7579 16.684C84.8139 16.732 84.8419 16.796 84.8419 16.876V23.92H87.7819V16.876C87.7819 16.796 87.8059 16.732 87.8539 16.684C87.9099 16.628 87.9779 16.6 88.0579 16.6H88.6699C88.7499 16.6 88.8179 16.628 88.8739 16.684C88.9299 16.732 88.9579 16.796 88.9579 16.876V23.92H91.8979V16.876C91.8979 16.796 91.9219 16.732 91.9699 16.684C92.0259 16.628 92.0939 16.6 92.1739 16.6H92.7859C92.8739 16.6 92.9419 16.628 92.9899 16.684C93.0459 16.732 93.0739 16.796 93.0739 16.876V24.724C93.0739 24.804 93.0459 24.872 92.9899 24.928C92.9419 24.976 92.8739 25 92.7859 25H83.9419ZM95.678 25C95.598 25 95.53 24.976 95.474 24.928C95.426 24.872 95.402 24.804 95.402 24.724V16.888C95.402 16.8 95.426 16.732 95.474 16.684C95.53 16.628 95.598 16.6 95.678 16.6H100.634C100.714 16.6 100.778 16.628 100.826 16.684C100.882 16.732 100.91 16.8 100.91 16.888V17.344C100.91 17.424 100.886 17.492 100.838 17.548C100.79 17.596 100.722 17.62 100.634 17.62H96.554V20.248H100.37C100.45 20.248 100.514 20.276 100.562 20.332C100.618 20.38 100.646 20.448 100.646 20.536V20.98C100.646 21.06 100.618 21.128 100.562 21.184C100.514 21.232 100.45 21.256 100.37 21.256H96.554V23.98H100.73C100.818 23.98 100.886 24.004 100.934 24.052C100.982 24.1 101.006 24.168 101.006 24.256V24.724C101.006 24.804 100.978 24.872 100.922 24.928C100.874 24.976 100.81 25 100.73 25H95.678Z" fill="white"/>
<path d="M139.5 38C149.165 38 157 30.165 157 20.5C157 10.835 149.165 3 139.5 3C129.835 3 122 10.835 122 20.5C122 30.165 129.835 38 139.5 38Z" stroke="white" stroke-opacity="0.4" stroke-miterlimit="10"/>
<path d="M140.197 25.6066L145.501 20.3033L140.197 15" stroke="white" stroke-width="1.5" stroke-linecap="round" stroke-linejoin="round"/>
<path d="M133 20.3032H145.5" stroke="white" stroke-width="1.5" stroke-linecap="round" stroke-linejoin="round"/>
</svg>
