<svg width="20" height="22" viewBox="0 0 20 22" fill="none" xmlns="http://www.w3.org/2000/svg">
<path d="M17.0125 11.3955C17.0125 13.4051 16.1721 15.2205 14.8267 16.5064C14.5651 15.6268 14.068 14.8295 13.3792 14.2027C12.9673 13.8277 12.5015 13.5276 12.0011 13.3098C12.9247 12.6687 13.5313 11.5972 13.5313 10.3857C13.5313 8.42797 11.9474 6.83485 10 6.83485C8.05257 6.83485 6.4688 8.42797 6.4688 10.3857C6.4688 11.5972 7.07542 12.6688 7.99889 13.3098C7.49866 13.5276 7.03269 13.8276 6.62076 14.2025C5.93213 14.8293 5.43489 15.6267 5.17331 16.5063C3.82787 15.2204 2.9875 13.405 2.9875 11.3955C2.9875 7.5066 6.13359 4.34314 10 4.34314C13.8664 4.34314 17.0125 7.5066 17.0125 11.3955ZM15.6923 5.67146C14.172 4.14253 12.1502 3.30034 10 3.30034C7.84968 3.30034 5.82803 4.14253 4.30768 5.67146C2.78735 7.20039 1.95 9.23333 1.95 11.3955C1.95 13.5576 2.78735 15.5907 4.30768 17.1196C5.82803 18.6485 7.84968 19.4907 10 19.4907C12.1502 19.4907 14.172 18.6485 15.6923 17.1196C17.2126 15.5907 18.05 13.5576 18.05 11.3955C18.05 9.23333 17.2126 7.20039 15.6923 5.67146ZM6.06546 17.2301C6.40851 15.3324 8.05002 13.9366 10 13.9366C11.9501 13.9366 13.5915 15.3324 13.9345 17.2301C12.8119 17.9982 11.4573 18.4479 10 18.4479C8.54273 18.4479 7.18814 17.9982 6.06546 17.2301ZM7.5063 10.3857C7.5063 9.00243 8.62529 7.87764 10 7.87764C11.3747 7.87764 12.4937 9.00255 12.4937 10.3857C12.4937 11.7689 11.3747 12.8938 10 12.8938C8.62529 12.8938 7.5063 11.7689 7.5063 10.3857Z" fill="#737C92" stroke="#737C92" stroke-width="0.1"/>
</svg>
