<svg width="22" height="22" viewBox="0 0 22 22" fill="none" xmlns="http://www.w3.org/2000/svg">
<path d="M18.5424 3.45744C16.5278 1.44279 13.849 0.333252 10.9999 0.333252C8.15063 0.333252 5.47209 1.44279 3.45744 3.45744C1.44279 5.47209 0.333252 8.15063 0.333252 10.9999C0.333252 13.849 1.44279 16.5278 3.45744 18.5424C5.47209 20.557 8.15063 21.6666 10.9999 21.6666C13.849 21.6666 16.5278 20.557 18.5424 18.5424C20.557 16.5278 21.6666 13.849 21.6666 10.9999C21.6666 8.15063 20.557 5.47209 18.5424 3.45744ZM5.68075 18.766C6.12687 16.1973 8.35278 14.3027 10.9999 14.3027C13.6472 14.3027 15.873 16.1973 16.3191 18.766C14.8046 19.8066 12.9722 20.4166 10.9999 20.4166C9.02759 20.4166 7.19523 19.8066 5.68075 18.766ZM7.60832 9.66105C7.60832 7.79077 9.1298 6.26945 10.9999 6.26945C12.87 6.26945 14.3915 7.79093 14.3915 9.66105C14.3915 11.5312 12.87 13.0527 10.9999 13.0527C9.1298 13.0527 7.60832 11.5312 7.60832 9.66105ZM17.4018 17.899C17.0653 16.7032 16.3972 15.6182 15.4607 14.7708C14.8861 14.2507 14.2322 13.8404 13.5291 13.5512C14.7999 12.7222 15.6417 11.2882 15.6417 9.66105C15.6417 7.10164 13.5593 5.01945 10.9999 5.01945C8.44051 5.01945 6.35832 7.10164 6.35832 9.66105C6.35832 11.2882 7.20011 12.7222 8.47078 13.5512C7.76782 13.8404 7.11369 14.2506 6.53914 14.7706C5.60278 15.6181 4.93449 16.703 4.59806 17.8988C2.74504 16.178 1.58325 13.7222 1.58325 10.9999C1.58325 5.80754 5.80754 1.58325 10.9999 1.58325C16.1923 1.58325 20.4166 5.80754 20.4166 10.9999C20.4166 13.7224 19.2548 16.1781 17.4018 17.899Z" fill="#737C92" stroke="#737C92" stroke-width="0.4"/>
</svg>
